<?xml version="1.0" encoding="UTF-8" standalone="no" ?>
<svg viewBox="0 0 48 48" stroke="none" fill="#ffffff" width="48" height="48" xmlns="http://www.w3.org/2000/svg">
  <path d="M 20.628467,0 19.117684,1.845963 18.144176,1.5255711 15.482439,0.53234732 c 0.0568,1.12659768 0.362015,2.25810148 0.537275,3.37153448 0.05127,0.325704 0.247607,0.8306813 0.142949,1.150957 -0.109129,0.3339507 -0.593473,0.5659044 -0.857673,0.7689458 -0.602551,0.4630769 -1.16908,0.9747645 -1.678372,1.5403558 -1.356635,1.5066043 -2.323814,3.4282726 -2.723353,5.4122026 -0.754955,3.748756 1.288212,7.232137 1.473814,10.913123 H 0.93160765 C 1.1417059,25.689547 1.7747372,27.787811 2.3166968,29.722735 4.5285569,37.619615 9.0943404,45.718031 17.700553,47.610598 19.434245,47.991853 21.168753,48 22.935303,48 c 3.735564,0 7.21844,-0.43897 10.558227,-2.240292 5.165987,-2.78629 8.162667,-8.806917 8.162667,-14.528651 0,-1.452307 -0.0988,-3.247731 -0.621073,-4.613681 4.253717,-1.662178 6.033268,-6.797185 6.033268,-11.001843 l -3.815156,2.405424 -3.903882,1.23228 -0.887245,-3.903885 4.791127,-0.975967 v -0.08872 C 41.55883,13.316415 39.62579,12.700371 37.841036,11.911281 37.242394,11.646595 36.406464,11.461585 35.896488,11.048675 35.529837,10.751817 35.377752,10.081828 35.157117,9.6709829 34.668304,8.7607806 34.090476,7.8676431 33.397416,7.0979665 30.433674,3.8066061 25.57895,2.1891748 21.249537,3.3715345 L 22.669126,1.2421441 20.628467,0 m 13.841036,15.881703 c 0.654893,3.388211 1.599565,6.741485 2.341344,10.1146 0.77508,3.524533 1.444831,7.034568 -0.14541,10.469504 -1.735649,3.748989 -4.851573,6.417747 -8.939003,7.240909 -2.038448,0.410522 -4.227009,0.211959 -6.299449,0.211959 -2.301573,0 -4.361189,-0.458137 -6.388168,-1.574864 -0.725011,-0.39943 -1.664743,-0.923783 -2.129391,-1.619222 l 3.371534,0.613674 2.661741,-0.08133 C 18.605519,40.892959 17.903992,40.848286 17.434381,40.69501 16.339395,40.337622 15.255814,39.916906 14.240295,39.371537 10.019712,37.104922 6.2409593,32.592187 5.9889086,27.59335 H 17.434381 c -0.267694,-2.548391 -1.081126,-5.127337 -1.631547,-7.630313 -0.148293,-0.674344 -0.741246,-2.081128 -0.549601,-2.740613 0.08417,-0.289647 0.858494,-0.394737 1.116451,-0.465801 1.096425,-0.302034 2.191715,-0.61578 3.282812,-0.936535 1.861741,-0.547312 3.72887,-1.072828 5.589654,-1.624156 0.624214,-0.184942 1.757392,-0.750598 2.395558,-0.645712 0.704218,0.11574 1.458142,0.784467 2.129392,1.054834 1.501032,0.604575 3.087713,1.107036 4.702403,1.276649 m -6.565623,2.341345 c -2.688283,0.522727 -1.984666,4.796193 0.709801,4.278493 2.784608,-0.535019 2.134122,-4.831492 -0.709801,-4.278493 z" />
</svg>
